<svg viewBox="0 0 600 400" xmlns="http://www.w3.org/2000/svg" style="background:#111;border-radius:4px">
  <text x="300" y="30" text-anchor="middle" fill="#999" font-size="14" font-family="sans-serif">Silence Latent Space — t-SNE Projection</text>
  <line x1="50" y1="50" x2="50" y2="360" stroke="#333" stroke-width="1"/>
  <line x1="50" y1="360" x2="570" y2="360" stroke="#333" stroke-width="1"/>
  <!-- Indoor clusters (blue) -->
  <circle cx="150" cy="180" r="5" fill="#4a9eff" opacity="0.7"/><circle cx="165" cy="195" r="4" fill="#4a9eff" opacity="0.6"/>
  <circle cx="140" cy="170" r="6" fill="#4a9eff" opacity="0.7"/><circle cx="175" cy="185" r="4" fill="#4a9eff" opacity="0.5"/>
  <circle cx="155" cy="200" r="5" fill="#4a9eff" opacity="0.6"/><circle cx="130" cy="190" r="5" fill="#4a9eff" opacity="0.7"/>
  <circle cx="160" cy="175" r="4" fill="#4a9eff" opacity="0.6"/><circle cx="145" cy="205" r="5" fill="#4a9eff" opacity="0.5"/>
  <circle cx="170" cy="165" r="3" fill="#4a9eff" opacity="0.7"/><circle cx="135" cy="180" r="4" fill="#4a9eff" opacity="0.6"/>
  <circle cx="158" cy="210" r="5" fill="#4a9eff" opacity="0.5"/><circle cx="148" cy="160" r="3" fill="#4a9eff" opacity="0.7"/>
  <!-- Outdoor clusters (green) -->
  <circle cx="380" cy="120" r="5" fill="#4aff9e" opacity="0.7"/><circle cx="395" cy="135" r="4" fill="#4aff9e" opacity="0.6"/>
  <circle cx="370" cy="110" r="6" fill="#4aff9e" opacity="0.7"/><circle cx="405" cy="125" r="4" fill="#4aff9e" opacity="0.5"/>
  <circle cx="385" cy="145" r="5" fill="#4aff9e" opacity="0.6"/><circle cx="360" cy="130" r="5" fill="#4aff9e" opacity="0.7"/>
  <circle cx="400" cy="115" r="4" fill="#4aff9e" opacity="0.6"/><circle cx="375" cy="140" r="5" fill="#4aff9e" opacity="0.5"/>
  <circle cx="390" cy="100" r="3" fill="#4aff9e" opacity="0.7"/><circle cx="365" cy="125" r="4" fill="#4aff9e" opacity="0.6"/>
  <!-- Urban clusters (orange) -->
  <circle cx="280" cy="290" r="5" fill="#ff9e4a" opacity="0.7"/><circle cx="295" cy="305" r="4" fill="#ff9e4a" opacity="0.6"/>
  <circle cx="270" cy="280" r="6" fill="#ff9e4a" opacity="0.7"/><circle cx="305" cy="295" r="4" fill="#ff9e4a" opacity="0.5"/>
  <circle cx="285" cy="310" r="5" fill="#ff9e4a" opacity="0.6"/><circle cx="260" cy="300" r="5" fill="#ff9e4a" opacity="0.7"/>
  <circle cx="300" cy="285" r="4" fill="#ff9e4a" opacity="0.6"/><circle cx="275" cy="315" r="5" fill="#ff9e4a" opacity="0.5"/>
  <!-- Legend -->
  <circle cx="80" cy="385" r="5" fill="#4a9eff"/><text x="92" y="389" fill="#999" font-size="11" font-family="sans-serif">Indoor</text>
  <circle cx="160" cy="385" r="5" fill="#4aff9e"/><text x="172" y="389" fill="#999" font-size="11" font-family="sans-serif">Outdoor</text>
  <circle cx="240" cy="385" r="5" fill="#ff9e4a"/><text x="252" y="389" fill="#999" font-size="11" font-family="sans-serif">Urban</text>
</svg>
